<mxfile host="app.diagrams.net" modified="2024-03-04T09:19:37.370Z" agent="Mozilla/5.0 (Windows NT 10.0; Win64; x64) AppleWebKit/537.36 (KHTML, like Gecko) Chrome/122.0.0.0 Safari/537.36" version="23.1.5" etag="rtvcc5exqACSsMWOSLzI" type="github">
  <diagram name="Side-1" id="hQI_MYawBEQ5qNmRmFBB">
    <mxGraphModel>
      <root>
        <mxCell id="0" />
        <mxCell id="1" parent="0" />
      </root>
    </mxGraphModel>
  </diagram>
</mxfile>
